<svg width="1148" height="1534" viewBox="0 0 1148 1534" fill="none" xmlns="http://www.w3.org/2000/svg">
<path d="M540.893 421.191C801.704 362.432 862.326 98.7168 1147.1 0L1145.22 1414H320.495C334.906 1311.05 290.941 1177.35 142.861 992.338C25.8478 846.144 67.672 684.906 114.195 604.052C205.362 482.302 279.45 480.094 540.893 421.191Z" fill="url(#paint0_linear_377_5)"/>
<path d="M504.104 477.5C781.604 415 846.104 134.5 1149.1 29.5L1147.1 1533.5H269.604C284.937 1424 238.159 1281.78 80.6048 1085C-43.896 929.5 0.604309 758 50.1046 672C147.105 542.5 225.933 540.151 504.104 477.5Z" fill="url(#paint1_linear_377_5)"/>
<defs>
<linearGradient id="paint0_linear_377_5" x1="607.104" y1="0" x2="607.104" y2="1414" gradientUnits="userSpaceOnUse">
<stop stop-color="#F5F7FF"/>
<stop offset="1" stop-color="white" stop-opacity="0"/>
</linearGradient>
<linearGradient id="paint1_linear_377_5" x1="574.552" y1="29.5" x2="574.552" y2="1533.5" gradientUnits="userSpaceOnUse">
<stop stop-color="#E4E7FF"/>
<stop offset="1" stop-color="white" stop-opacity="0"/>
</linearGradient>
</defs>
</svg>
