<svg width="147" height="80" viewBox="0 0 147 80" fill="none" xmlns="http://www.w3.org/2000/svg">
<path d="M40.4826 52.9152H38.3546L37.9626 54.0002H37.2906L39.0546 49.1492H39.7896L41.5466 54.0002H40.8746L40.4826 52.9152ZM40.3006 52.3972L39.4186 49.9332L38.5366 52.3972H40.3006ZM55.3844 54.0002L54.2224 52.0052H53.4524V54.0002H52.8154V49.1212H54.3904C54.759 49.1212 55.0694 49.1842 55.3214 49.3102C55.578 49.4362 55.7694 49.6066 55.8954 49.8212C56.0214 50.0359 56.0844 50.2809 56.0844 50.5562C56.0844 50.8922 55.9864 51.1886 55.7904 51.4452C55.599 51.7019 55.3097 51.8722 54.9224 51.9562L56.1474 54.0002H55.3844ZM53.4524 51.4942H54.3904C54.7357 51.4942 54.9947 51.4102 55.1674 51.2422C55.34 51.0696 55.4264 50.8409 55.4264 50.5562C55.4264 50.2669 55.34 50.0429 55.1674 49.8842C54.9994 49.7256 54.7404 49.6462 54.3904 49.6462H53.4524V51.4942ZM70.5772 49.1212V49.6392H69.2472V54.0002H68.6102V49.6392H67.2732V49.1212H70.5772ZM82.4983 49.1212V54.0002H81.8613V49.1212H82.4983ZM95.6309 54.0492C95.3089 54.0492 95.0196 53.9932 94.7629 53.8812C94.5109 53.7646 94.3126 53.6059 94.1679 53.4052C94.0233 53.1999 93.9486 52.9642 93.9439 52.6982H94.6229C94.6463 52.9269 94.7396 53.1206 94.9029 53.2792C95.0709 53.4332 95.3136 53.5102 95.6309 53.5102C95.9343 53.5102 96.1723 53.4356 96.3449 53.2862C96.5223 53.1322 96.6109 52.9362 96.6109 52.6982C96.6109 52.5116 96.5596 52.3599 96.4569 52.2432C96.3543 52.1266 96.2259 52.0379 96.0719 51.9772C95.9179 51.9166 95.7103 51.8512 95.4489 51.7812C95.1269 51.6972 94.8679 51.6132 94.6719 51.5292C94.4806 51.4452 94.3149 51.3146 94.1749 51.1372C94.0396 50.9552 93.9719 50.7126 93.9719 50.4092C93.9719 50.1432 94.0396 49.9076 94.1749 49.7022C94.3103 49.4969 94.4993 49.3382 94.7419 49.2262C94.9893 49.1142 95.2716 49.0582 95.5889 49.0582C96.0463 49.0582 96.4196 49.1726 96.7089 49.4012C97.0029 49.6299 97.1686 49.9332 97.2059 50.3112H96.5059C96.4826 50.1246 96.3846 49.9612 96.2119 49.8212C96.0393 49.6766 95.8106 49.6042 95.5259 49.6042C95.2599 49.6042 95.0429 49.6742 94.8749 49.8142C94.7069 49.9496 94.6229 50.1409 94.6229 50.3882C94.6229 50.5656 94.6719 50.7102 94.7699 50.8222C94.8726 50.9342 94.9963 51.0206 95.1409 51.0812C95.2903 51.1372 95.4979 51.2026 95.7639 51.2772C96.0859 51.3659 96.3449 51.4546 96.5409 51.5432C96.7369 51.6272 96.9049 51.7602 97.0449 51.9422C97.1849 52.1196 97.2549 52.3622 97.2549 52.6702C97.2549 52.9082 97.1919 53.1322 97.0659 53.3422C96.9399 53.5522 96.7533 53.7226 96.5059 53.8532C96.2586 53.9839 95.9669 54.0492 95.6309 54.0492ZM111.695 49.1212V49.6392H110.365V54.0002H109.728V49.6392H108.391V49.1212H111.695Z" fill="#091156"/>
<line x1="45" y1="43.5002" x2="108" y2="43.5002" stroke="#091156"/>
<line x1="45" y1="59.5002" x2="108" y2="59.5002" stroke="#091156"/>
<path d="M60.9249 38.0002L56.9129 32.7302V38.0002H54.0059V26.0662H56.9129V31.3022L60.8909 26.0662H64.3079L59.6839 31.9142L64.4779 38.0002H60.9249ZM73.4074 26.0662H76.3824L74.4784 30.6222H72.5234L73.4074 26.0662ZM88.0691 35.6202H93.2031V38.0002H84.7711V35.7902L89.8711 28.4462H84.7711V26.0662H93.2031V28.2762L88.0691 35.6202Z" fill="#091156"/>
</svg>
