<svg width="147" height="80" viewBox="0 0 147 80" fill="none" xmlns="http://www.w3.org/2000/svg">
<rect x="11" y="23.0002" width="22.4091" height="34" rx="11.2045" fill="#172176" fill-opacity="0.78"/>
<rect x="52.7273" y="29.1821" width="22.4091" height="34" rx="11.2045" transform="rotate(90 52.7273 29.1821)" fill="#172176" fill-opacity="0.37"/>
<path d="M73.2468 37.8802C73.9381 38.0276 74.4935 38.3732 74.9128 38.9172C75.3321 39.4499 75.5418 40.0619 75.5418 40.7532C75.5418 41.7506 75.1905 42.5439 74.4878 43.1332C73.7965 43.7112 72.8275 44.0002 71.5808 44.0002H66.0218V32.0662H71.3938C72.6065 32.0662 73.5528 32.3439 74.2328 32.8992C74.9241 33.4546 75.2698 34.2082 75.2698 35.1602C75.2698 35.8629 75.0828 36.4466 74.7088 36.9112C74.3461 37.3759 73.8588 37.6989 73.2468 37.8802ZM68.9288 36.8942H70.8328C71.3088 36.8942 71.6715 36.7922 71.9208 36.5882C72.1815 36.3729 72.3118 36.0612 72.3118 35.6532C72.3118 35.2452 72.1815 34.9336 71.9208 34.7182C71.6715 34.5029 71.3088 34.3952 70.8328 34.3952H68.9288V36.8942ZM71.0708 41.6542C71.5581 41.6542 71.9321 41.5466 72.1928 41.3312C72.4648 41.1046 72.6008 40.7816 72.6008 40.3622C72.6008 39.9429 72.4591 39.6142 72.1758 39.3762C71.9038 39.1382 71.5241 39.0192 71.0368 39.0192H68.9288V41.6542H71.0708ZM87.0199 41.7562H90.8279V44.0002H84.1129V32.0662H87.0199V41.7562ZM102.006 32.0662V44.0002H99.0994V32.0662H102.006ZM119.583 32.0662V34.3952H116.421V44.0002H113.514V34.3952H110.352V32.0662H119.583ZM131.021 41.6202H136.155V44.0002H127.723V41.7902L132.823 34.4462H127.723V32.0662H136.155V34.2762L131.021 41.6202Z" fill="#091156"/>
<path d="M58.2918 49.6392V51.2702H60.0698V51.7952H58.2918V53.4752H60.2798V54.0002H57.6548V49.1142H60.2798V49.6392H58.2918ZM67.9147 54.0002H67.2777L64.7157 50.1152V54.0002H64.0787V49.1142H64.7157L67.2777 52.9922V49.1142H67.9147V54.0002ZM74.8385 49.1212V49.6392H73.5085V54.0002H72.8715V49.6392H71.5345V49.1212H74.8385ZM79.0946 49.6392V51.2702H80.8726V51.7952H79.0946V53.4752H81.0826V54.0002H78.4576V49.1142H81.0826V49.6392H79.0946ZM87.4505 54.0002L86.2885 52.0052H85.5185V54.0002H84.8815V49.1212H86.4565C86.8252 49.1212 87.1355 49.1842 87.3875 49.3102C87.6442 49.4362 87.8355 49.6066 87.9615 49.8212C88.0875 50.0359 88.1505 50.2809 88.1505 50.5562C88.1505 50.8922 88.0525 51.1886 87.8565 51.4452C87.6652 51.7019 87.3758 51.8722 86.9885 51.9562L88.2135 54.0002H87.4505ZM85.5185 51.4942H86.4565C86.8018 51.4942 87.0608 51.4102 87.2335 51.2422C87.4062 51.0696 87.4925 50.8409 87.4925 50.5562C87.4925 50.2669 87.4062 50.0429 87.2335 49.8842C87.0655 49.7256 86.8065 49.6462 86.4565 49.6462H85.5185V51.4942ZM94.9783 49.1212V49.6392H93.6483V54.0002H93.0113V49.6392H91.6743V49.1212H94.9783ZM101.481 52.9152H99.3534L98.9614 54.0002H98.2894L100.053 49.1492H100.788L102.545 54.0002H101.873L101.481 52.9152ZM101.299 52.3972L100.417 49.9332L99.5354 52.3972H101.299ZM106.786 49.1212V54.0002H106.149V49.1212H106.786ZM115.656 49.1562V54.0002H115.019V50.3882L113.409 54.0002H112.961L111.344 50.3812V54.0002H110.707V49.1562H111.393L113.185 53.1602L114.977 49.1562H115.656ZM120.208 49.6392V51.2702H121.986V51.7952H120.208V53.4752H122.196V54.0002H119.571V49.1142H122.196V49.6392H120.208ZM129.831 54.0002H129.194L126.632 50.1152V54.0002H125.995V49.1142H126.632L129.194 52.9922V49.1142H129.831V54.0002ZM136.755 49.1212V49.6392H135.425V54.0002H134.788V49.6392H133.451V49.1212H136.755Z" fill="#091156"/>
</svg>
