<svg width="147" height="80" viewBox="0 0 147 80" fill="none" xmlns="http://www.w3.org/2000/svg">
<path d="M23.2812 38.4882C23.4372 38.8842 23.6172 39.1722 23.8212 39.3522C24.0252 39.5322 24.2232 39.6282 24.4152 39.6402V40.0002C23.6952 39.9642 22.7832 39.9462 21.6792 39.9462C20.4552 39.9462 19.5432 39.9642 18.9432 40.0002V39.6402C19.3992 39.6162 19.7232 39.5622 19.9152 39.4782C20.1072 39.3822 20.2032 39.2202 20.2032 38.9922C20.2032 38.7762 20.1312 38.4882 19.9872 38.1282L18.9072 35.1762H14.9832L14.5152 36.4182C14.1792 37.2822 14.0112 37.9482 14.0112 38.4162C14.0112 38.8602 14.1432 39.1722 14.4072 39.3522C14.6832 39.5202 15.0852 39.6162 15.6132 39.6402V40.0002C14.7972 39.9642 14.0532 39.9462 13.3812 39.9462C12.8292 39.9462 12.3732 39.9642 12.0132 40.0002V39.6402C12.6012 39.5322 13.1172 38.9022 13.5612 37.7502L17.6652 27.2202C17.7972 27.2322 18.0072 27.2382 18.2952 27.2382C18.5832 27.2382 18.7872 27.2322 18.9072 27.2202L23.2812 38.4882ZM18.7812 34.8162L16.9992 29.9562L15.1272 34.8162H18.7812ZM49.0295 27.6162C48.6215 27.6402 48.3275 27.6882 48.1475 27.7602C47.9675 27.8322 47.8415 27.9702 47.7695 28.1742C47.7095 28.3782 47.6795 28.7082 47.6795 29.1642V38.0922C47.6795 38.5482 47.7095 38.8782 47.7695 39.0822C47.8415 39.2862 47.9675 39.4242 48.1475 39.4962C48.3395 39.5682 48.6335 39.6162 49.0295 39.6402V40.0002C48.3695 39.9642 47.4275 39.9462 46.2035 39.9462C44.9195 39.9462 43.9715 39.9642 43.3595 40.0002V39.6402C43.7915 39.6162 44.1035 39.5682 44.2955 39.4962C44.4995 39.4242 44.6375 39.2862 44.7095 39.0822C44.7815 38.8782 44.8175 38.5482 44.8175 38.0922V28.6782L40.4795 40.0182H40.1915L35.3315 28.4262V37.0482C35.3315 37.7562 35.3675 38.2782 35.4395 38.6142C35.5115 38.9382 35.6675 39.1782 35.9075 39.3342C36.1475 39.4782 36.5375 39.5802 37.0775 39.6402V40.0002C36.6095 39.9642 35.9615 39.9462 35.1335 39.9462C34.4735 39.9462 33.9515 39.9642 33.5675 40.0002V39.6402C33.9635 39.5802 34.2515 39.4782 34.4315 39.3342C34.6235 39.1902 34.7495 38.9622 34.8095 38.6502C34.8815 38.3382 34.9175 37.8762 34.9175 37.2642V29.1642C34.9175 28.7082 34.8815 28.3782 34.8095 28.1742C34.7495 27.9702 34.6235 27.8322 34.4315 27.7602C34.2515 27.6882 33.9635 27.6402 33.5675 27.6162V27.2562C33.9515 27.2922 34.4735 27.3102 35.1335 27.3102C36.2375 27.3102 37.1855 27.2922 37.9775 27.2562L41.6135 36.0222L44.9255 27.3102H46.2035C47.4275 27.3102 48.3695 27.2922 49.0295 27.2562V27.6162ZM69.6171 38.4882C69.7731 38.8842 69.9531 39.1722 70.1571 39.3522C70.3611 39.5322 70.5591 39.6282 70.7511 39.6402V40.0002C70.0311 39.9642 69.1191 39.9462 68.0151 39.9462C66.7911 39.9462 65.8791 39.9642 65.2791 40.0002V39.6402C65.7351 39.6162 66.0591 39.5622 66.2511 39.4782C66.4431 39.3822 66.5391 39.2202 66.5391 38.9922C66.5391 38.7762 66.4671 38.4882 66.3231 38.1282L65.2431 35.1762H61.3191L60.8511 36.4182C60.5151 37.2822 60.3471 37.9482 60.3471 38.4162C60.3471 38.8602 60.4791 39.1722 60.7431 39.3522C61.0191 39.5202 61.4211 39.6162 61.9491 39.6402V40.0002C61.1331 39.9642 60.3891 39.9462 59.7171 39.9462C59.1651 39.9462 58.7091 39.9642 58.3491 40.0002V39.6402C58.9371 39.5322 59.4531 38.9022 59.8971 37.7502L64.0011 27.2202C64.1331 27.2322 64.3431 27.2382 64.6311 27.2382C64.9191 27.2382 65.1231 27.2322 65.2431 27.2202L69.6171 38.4882ZM65.1171 34.8162L63.3351 29.9562L61.4631 34.8162H65.1171ZM91.7474 27.6162C91.3514 27.6762 91.0574 27.7782 90.8654 27.9222C90.6854 28.0662 90.5594 28.2942 90.4874 28.6062C90.4274 28.9182 90.3974 29.3802 90.3974 29.9922V40.0362L89.9654 40.0182L89.4794 40.0362L81.6674 30.1362V37.0482C81.6674 37.7562 81.7034 38.2782 81.7754 38.6142C81.8474 38.9382 82.0034 39.1782 82.2434 39.3342C82.4834 39.4782 82.8734 39.5802 83.4134 39.6402V40.0002C82.9454 39.9642 82.2974 39.9462 81.4694 39.9462C80.8094 39.9462 80.2874 39.9642 79.9034 40.0002V39.6402C80.2994 39.5802 80.5874 39.4782 80.7674 39.3342C80.9594 39.1902 81.0854 38.9622 81.1454 38.6502C81.2174 38.3382 81.2534 37.8762 81.2534 37.2642V29.1642C81.2534 28.7082 81.2174 28.3782 81.1454 28.1742C81.0854 27.9702 80.9594 27.8322 80.7674 27.7602C80.5874 27.6882 80.2994 27.6402 79.9034 27.6162V27.2562C80.2874 27.2922 80.8094 27.3102 81.4694 27.3102C82.0694 27.3102 82.5854 27.2922 83.0174 27.2562L89.9834 35.8422V30.2082C89.9834 29.5002 89.9474 28.9842 89.8754 28.6602C89.8034 28.3242 89.6474 28.0842 89.4074 27.9402C89.1674 27.7842 88.7774 27.6762 88.2374 27.6162V27.2562C88.7054 27.2922 89.3534 27.3102 90.1814 27.3102C90.8534 27.3102 91.3754 27.2922 91.7474 27.2562V27.6162ZM107.438 27.2562C109.778 27.2562 111.53 27.7902 112.694 28.8582C113.858 29.9142 114.44 31.4562 114.44 33.4842C114.44 34.7922 114.152 35.9382 113.576 36.9222C113.012 37.8942 112.19 38.6502 111.11 39.1902C110.042 39.7302 108.764 40.0002 107.276 40.0002L106.16 39.9822C105.464 39.9582 104.96 39.9462 104.648 39.9462C103.412 39.9462 102.488 39.9642 101.876 40.0002V39.6402C102.272 39.6162 102.56 39.5682 102.74 39.4962C102.932 39.4242 103.058 39.2862 103.118 39.0822C103.19 38.8782 103.226 38.5482 103.226 38.0922V29.1642C103.226 28.7082 103.19 28.3782 103.118 28.1742C103.058 27.9702 102.932 27.8322 102.74 27.7602C102.56 27.6882 102.272 27.6402 101.876 27.6162V27.2562C102.38 27.2922 103.106 27.3102 104.054 27.3102H104.612L105.332 27.2922C106.316 27.2682 107.018 27.2562 107.438 27.2562ZM107.42 27.5802C107.048 27.5802 106.766 27.6222 106.574 27.7062C106.394 27.7902 106.268 27.9402 106.196 28.1562C106.124 28.3722 106.088 28.6962 106.088 29.1282V38.1282C106.088 38.5602 106.124 38.8842 106.196 39.1002C106.268 39.3162 106.394 39.4662 106.574 39.5502C106.766 39.6342 107.054 39.6762 107.438 39.6762C108.89 39.6762 109.922 39.1722 110.534 38.1642C111.146 37.1442 111.452 35.6082 111.452 33.5562C111.452 31.5042 111.134 29.9982 110.498 29.0382C109.874 28.0662 108.848 27.5802 107.42 27.5802ZM134.709 38.4882C134.865 38.8842 135.045 39.1722 135.249 39.3522C135.453 39.5322 135.651 39.6282 135.843 39.6402V40.0002C135.123 39.9642 134.211 39.9462 133.107 39.9462C131.883 39.9462 130.971 39.9642 130.371 40.0002V39.6402C130.827 39.6162 131.151 39.5622 131.343 39.4782C131.535 39.3822 131.631 39.2202 131.631 38.9922C131.631 38.7762 131.559 38.4882 131.415 38.1282L130.335 35.1762H126.411L125.943 36.4182C125.607 37.2822 125.439 37.9482 125.439 38.4162C125.439 38.8602 125.571 39.1722 125.835 39.3522C126.111 39.5202 126.513 39.6162 127.041 39.6402V40.0002C126.225 39.9642 125.481 39.9462 124.809 39.9462C124.257 39.9462 123.801 39.9642 123.441 40.0002V39.6402C124.029 39.5322 124.545 38.9022 124.989 37.7502L129.093 27.2202C129.225 27.2322 129.435 27.2382 129.723 27.2382C130.011 27.2382 130.215 27.2322 130.335 27.2202L134.709 38.4882ZM130.209 34.8162L128.427 29.9562L126.555 34.8162H130.209Z" fill="#091156"/>
<path d="M36.6029 48.4322C36.3389 48.4469 36.1446 48.4762 36.0199 48.5202C35.9026 48.5642 35.8219 48.6486 35.7779 48.7732C35.7339 48.8979 35.7119 49.0996 35.7119 49.3782V54.8342C35.7119 55.1129 35.7339 55.3146 35.7779 55.4392C35.8219 55.5639 35.9026 55.6482 36.0199 55.6922C36.1446 55.7289 36.3389 55.7472 36.6029 55.7472H37.4059C37.8606 55.7472 38.2053 55.6849 38.4399 55.5602C38.6819 55.4282 38.8579 55.2192 38.9679 54.9332C39.0779 54.6472 39.1586 54.2329 39.2099 53.6902H39.4629C39.4409 53.9176 39.4299 54.2182 39.4299 54.5922C39.4299 55.0102 39.4556 55.4796 39.5069 56.0002C39.0083 55.9782 38.1686 55.9672 36.9879 55.9672C35.5799 55.9672 34.5166 55.9782 33.7979 56.0002V55.7802C34.0619 55.7656 34.2526 55.7362 34.3699 55.6922C34.4946 55.6482 34.5789 55.5639 34.6229 55.4392C34.6669 55.3146 34.6889 55.1129 34.6889 54.8342V49.3782C34.6889 49.0996 34.6669 48.8979 34.6229 48.7732C34.5789 48.6486 34.4946 48.5642 34.3699 48.5202C34.2526 48.4762 34.0619 48.4469 33.7979 48.4322V48.2122C34.1059 48.2342 34.5753 48.2452 35.2059 48.2452C35.7926 48.2452 36.2583 48.2342 36.6029 48.2122V48.4322ZM51.5397 55.0762C51.7157 55.5309 51.9687 55.7656 52.2987 55.7802V56.0002C52.0054 55.9782 51.6131 55.9672 51.1217 55.9672C50.4911 55.9672 50.0217 55.9782 49.7137 56.0002V55.7802C49.9924 55.7656 50.1904 55.7326 50.3077 55.6812C50.4324 55.6226 50.4947 55.5199 50.4947 55.3732C50.4947 55.2486 50.4507 55.0762 50.3627 54.8562L49.6917 53.0522H47.0297L46.5787 54.2182C46.4321 54.6142 46.3587 54.9149 46.3587 55.1202C46.3587 55.3476 46.4357 55.5126 46.5897 55.6152C46.7511 55.7179 46.9931 55.7729 47.3157 55.7802V56.0002C46.8977 55.9782 46.4761 55.9672 46.0507 55.9672C45.7207 55.9672 45.4457 55.9782 45.2257 56.0002V55.7802C45.5924 55.6922 45.8821 55.3732 46.0947 54.8232L48.6797 48.1572H48.8557L51.5397 55.0762ZM49.6037 52.8322L48.3717 49.5432L47.1177 52.8322H49.6037ZM64.9364 48.4322C64.6798 48.4469 64.4891 48.4872 64.3644 48.5532C64.2398 48.6119 64.1554 48.7146 64.1114 48.8612C64.0674 49.0006 64.0454 49.2096 64.0454 49.4882V52.7992C64.0454 53.3272 64.0088 53.7819 63.9354 54.1632C63.8694 54.5372 63.7558 54.8599 63.5944 55.1312C63.4111 55.4466 63.1398 55.6959 62.7804 55.8792C62.4284 56.0626 62.0288 56.1542 61.5814 56.1542C60.7748 56.1542 60.1588 55.9562 59.7334 55.5602C59.4108 55.2596 59.1944 54.9186 59.0844 54.5372C58.9744 54.1559 58.9194 53.5876 58.9194 52.8322V49.3782C58.9194 49.0996 58.8974 48.8979 58.8534 48.7732C58.8094 48.6486 58.7251 48.5642 58.6004 48.5202C58.4831 48.4762 58.2924 48.4469 58.0284 48.4322V48.2122C58.3364 48.2342 58.8058 48.2452 59.4364 48.2452C60.0304 48.2452 60.4961 48.2342 60.8334 48.2122V48.4322C60.5694 48.4469 60.3751 48.4762 60.2504 48.5202C60.1331 48.5642 60.0524 48.6486 60.0084 48.7732C59.9644 48.8979 59.9424 49.0996 59.9424 49.3782V53.0192C59.9424 53.6059 59.9828 54.0936 60.0634 54.4822C60.1441 54.8709 60.3091 55.1826 60.5584 55.4172C60.8151 55.6519 61.1891 55.7692 61.6804 55.7692C62.4578 55.7692 63.0041 55.5199 63.3194 55.0212C63.6348 54.5226 63.7924 53.8222 63.7924 52.9202V49.4882C63.7924 49.0922 63.7191 48.8209 63.5724 48.6742C63.4331 48.5276 63.1728 48.4469 62.7914 48.4322V48.2122C63.0554 48.2342 63.4294 48.2452 63.9134 48.2452C64.3534 48.2452 64.6944 48.2342 64.9364 48.2122V48.4322ZM77.9895 55.4502C77.8208 55.6996 77.6522 55.8792 77.4835 55.9892C77.3148 56.0992 77.0912 56.1542 76.8125 56.1542C76.5118 56.1542 76.2625 56.0662 76.0645 55.8902C75.8738 55.7142 75.7308 55.4062 75.6355 54.9662L75.3935 53.8662C75.3055 53.4849 75.2212 53.1916 75.1405 52.9862C75.0672 52.7809 74.9535 52.6159 74.7995 52.4912C74.6455 52.3666 74.4292 52.3042 74.1505 52.3042H73.1055V54.8342C73.1055 55.1129 73.1275 55.3146 73.1715 55.4392C73.2155 55.5639 73.2962 55.6482 73.4135 55.6922C73.5382 55.7362 73.7325 55.7656 73.9965 55.7802V56.0002C73.6592 55.9782 73.1935 55.9672 72.5995 55.9672C71.9688 55.9672 71.4995 55.9782 71.1915 56.0002V55.7802C71.4555 55.7656 71.6462 55.7362 71.7635 55.6922C71.8882 55.6482 71.9725 55.5639 72.0165 55.4392C72.0605 55.3146 72.0825 55.1129 72.0825 54.8342V49.3782C72.0825 49.0996 72.0605 48.8979 72.0165 48.7732C71.9725 48.6486 71.8882 48.5642 71.7635 48.5202C71.6462 48.4762 71.4555 48.4469 71.1915 48.4322V48.2122C71.4995 48.2342 71.9468 48.2452 72.5335 48.2452L73.7215 48.2342C73.8608 48.2269 74.0185 48.2232 74.1945 48.2232C75.0452 48.2232 75.6978 48.4029 76.1525 48.7622C76.6145 49.1142 76.8455 49.5726 76.8455 50.1372C76.8455 50.4232 76.7758 50.7129 76.6365 51.0062C76.5045 51.2922 76.2772 51.5526 75.9545 51.7872C75.6392 52.0146 75.2248 52.1686 74.7115 52.2492L74.8435 52.2712C75.3275 52.3519 75.6795 52.4986 75.8995 52.7112C76.1195 52.9239 76.2808 53.2612 76.3835 53.7232L76.6585 54.8452C76.7318 55.1826 76.8088 55.4172 76.8895 55.5492C76.9702 55.6812 77.0802 55.7472 77.2195 55.7472C77.3442 55.7472 77.4468 55.7142 77.5275 55.6482C77.6155 55.5822 77.7145 55.4759 77.8245 55.3292L77.9895 55.4502ZM73.9195 48.4322C73.6922 48.4322 73.5198 48.4579 73.4025 48.5092C73.2925 48.5606 73.2155 48.6522 73.1715 48.7842C73.1275 48.9162 73.1055 49.1142 73.1055 49.3782V52.0842H73.8425C74.5685 52.0842 75.0672 51.9229 75.3385 51.6002C75.6098 51.2776 75.7455 50.8302 75.7455 50.2582C75.7455 49.6569 75.6025 49.2022 75.3165 48.8942C75.0305 48.5862 74.5648 48.4322 73.9195 48.4322ZM89.4563 54.5922C89.4563 55.0102 89.482 55.4796 89.5333 56.0002C89.0346 55.9782 88.195 55.9672 87.0143 55.9672C85.6063 55.9672 84.543 55.9782 83.8243 56.0002V55.7802C84.0883 55.7656 84.279 55.7362 84.3963 55.6922C84.521 55.6482 84.6053 55.5639 84.6493 55.4392C84.6933 55.3146 84.7153 55.1129 84.7153 54.8342V49.3782C84.7153 49.0996 84.6933 48.8979 84.6493 48.7732C84.6053 48.6486 84.521 48.5642 84.3963 48.5202C84.279 48.4762 84.0883 48.4469 83.8243 48.4322V48.2122C84.543 48.2342 85.6063 48.2452 87.0143 48.2452C88.0923 48.2452 88.8586 48.2342 89.3133 48.2122C89.262 48.6962 89.2363 49.1289 89.2363 49.5102C89.2363 49.7962 89.2473 50.0236 89.2693 50.1922H89.0163C88.965 49.7156 88.899 49.3636 88.8183 49.1362C88.7376 48.9016 88.602 48.7329 88.4113 48.6302C88.2206 48.5202 87.931 48.4652 87.5423 48.4652H86.6293C86.3653 48.4652 86.171 48.4872 86.0463 48.5312C85.929 48.5679 85.8483 48.6486 85.8043 48.7732C85.7603 48.8979 85.7383 49.0996 85.7383 49.3782V51.9742H86.4643C86.721 51.9742 86.919 51.9156 87.0583 51.7982C87.1976 51.6736 87.2893 51.5306 87.3333 51.3692C87.3846 51.2006 87.425 50.9916 87.4543 50.7422L87.4873 50.5222H87.7403C87.7183 50.8302 87.7073 51.1749 87.7073 51.5562V52.0842C87.7073 52.4582 87.7293 52.9789 87.7733 53.6462H87.5203C87.513 53.5949 87.491 53.4189 87.4543 53.1182C87.4176 52.8102 87.315 52.5792 87.1463 52.4252C86.985 52.2712 86.7576 52.1942 86.4643 52.1942H85.7383V54.8342C85.7383 55.1129 85.7603 55.3146 85.8043 55.4392C85.8483 55.5639 85.929 55.6482 86.0463 55.6922C86.171 55.7289 86.3653 55.7472 86.6293 55.7472H87.4323C87.887 55.7472 88.2316 55.6886 88.4663 55.5712C88.7083 55.4466 88.8843 55.2522 88.9943 54.9882C89.1043 54.7169 89.185 54.3209 89.2363 53.8002H89.4893C89.4673 53.9982 89.4563 54.2622 89.4563 54.5922ZM102.935 48.4322C102.679 48.4469 102.488 48.4872 102.363 48.5532C102.239 48.6119 102.154 48.7146 102.11 48.8612C102.066 49.0006 102.044 49.2096 102.044 49.4882V56.0552H101.791L97.1714 48.9162V54.7242C97.1714 55.0102 97.1934 55.2229 97.2374 55.3622C97.2888 55.5016 97.3841 55.6042 97.5234 55.6702C97.6628 55.7289 97.8791 55.7656 98.1724 55.7802V56.0002C97.9084 55.9782 97.5344 55.9672 97.0504 55.9672C96.6104 55.9672 96.2694 55.9782 96.0274 56.0002V55.7802C96.2841 55.7656 96.4748 55.7289 96.5994 55.6702C96.7241 55.6042 96.8084 55.5016 96.8524 55.3622C96.8964 55.2156 96.9184 55.0029 96.9184 54.7242V49.3782C96.9184 49.0996 96.8964 48.8979 96.8524 48.7732C96.8084 48.6486 96.7241 48.5642 96.5994 48.5202C96.4821 48.4762 96.2914 48.4469 96.0274 48.4322V48.2122C96.2694 48.2342 96.6104 48.2452 97.0504 48.2452C97.3804 48.2452 97.6664 48.2342 97.9084 48.2122L101.791 54.1962V49.4882C101.791 49.2022 101.766 48.9896 101.714 48.8502C101.67 48.7109 101.579 48.6119 101.439 48.5532C101.3 48.4872 101.084 48.4469 100.79 48.4322V48.2122C101.054 48.2342 101.428 48.2452 101.912 48.2452C102.352 48.2452 102.693 48.2342 102.935 48.2122V48.4322ZM115.344 48.2122C115.293 48.7329 115.267 49.2022 115.267 49.6202C115.267 49.9869 115.278 50.2876 115.3 50.5222H115.047C114.988 49.9576 114.915 49.5396 114.827 49.2682C114.739 48.9896 114.585 48.7879 114.365 48.6632C114.145 48.5312 113.808 48.4652 113.353 48.4652H112.759V54.7242C112.759 55.0322 112.788 55.2559 112.847 55.3952C112.906 55.5346 113.008 55.6299 113.155 55.6812C113.302 55.7326 113.54 55.7656 113.87 55.7802V56.0002C113.489 55.9782 112.95 55.9672 112.253 55.9672C111.52 55.9672 110.977 55.9782 110.625 56.0002V55.7802C110.955 55.7656 111.193 55.7326 111.34 55.6812C111.487 55.6299 111.589 55.5346 111.648 55.3952C111.707 55.2559 111.736 55.0322 111.736 54.7242V48.4652H111.142C110.687 48.4652 110.35 48.5312 110.13 48.6632C109.91 48.7879 109.756 48.9896 109.668 49.2682C109.58 49.5396 109.507 49.9576 109.448 50.5222H109.195C109.217 50.2876 109.228 49.9869 109.228 49.6202C109.228 49.2022 109.202 48.7329 109.151 48.2122C109.76 48.2342 110.794 48.2452 112.253 48.2452C113.705 48.2452 114.735 48.2342 115.344 48.2122Z" fill="#091156"/>
</svg>
