<svg width="147" height="80" viewBox="0 0 147 80" fill="none" xmlns="http://www.w3.org/2000/svg">
<circle cx="38.5" cy="35.5002" r="20.5" fill="#172176" fill-opacity="0.77"/>
<ellipse cx="49" cy="50.5002" rx="14" ry="14.5" fill="#172176" fill-opacity="0.54"/>
<circle cx="59" cy="36.0002" r="11" fill="#172176" fill-opacity="0.74"/>
<path d="M79.0627 41.0142C79.0627 39.9822 79.2728 39.0822 79.6928 38.3142C80.1128 37.5342 80.6948 36.9342 81.4388 36.5142C82.1828 36.0822 83.0348 35.8662 83.9948 35.8662C85.2308 35.8662 86.2508 36.1782 87.0548 36.8022C87.8708 37.4142 88.4168 38.2782 88.6928 39.3942H85.9748C85.8308 38.9622 85.5848 38.6262 85.2368 38.3862C84.9008 38.1342 84.4808 38.0082 83.9768 38.0082C83.2568 38.0082 82.6868 38.2722 82.2668 38.8002C81.8468 39.3162 81.6368 40.0542 81.6368 41.0142C81.6368 41.9622 81.8468 42.7002 82.2668 43.2282C82.6868 43.7442 83.2568 44.0022 83.9768 44.0022C84.9968 44.0022 85.6628 43.5462 85.9748 42.6342H88.6928C88.4168 43.7142 87.8708 44.5722 87.0548 45.2082C86.2388 45.8442 85.2188 46.1622 83.9948 46.1622C83.0348 46.1622 82.1828 45.9522 81.4388 45.5322C80.6948 45.1002 80.1128 44.5002 79.6928 43.7322C79.2728 42.9522 79.0627 42.0462 79.0627 41.0142ZM91.8169 34.8402C91.3729 34.8402 91.0009 34.7022 90.7009 34.4262C90.4129 34.1382 90.2689 33.7842 90.2689 33.3642C90.2689 32.9442 90.4129 32.5962 90.7009 32.3202C91.0009 32.0322 91.3729 31.8882 91.8169 31.8882C92.2609 31.8882 92.6269 32.0322 92.9149 32.3202C93.2149 32.5962 93.3649 32.9442 93.3649 33.3642C93.3649 33.7842 93.2149 34.1382 92.9149 34.4262C92.6269 34.7022 92.2609 34.8402 91.8169 34.8402ZM93.0589 36.0282V46.0002H90.5389V36.0282H93.0589ZM98.0686 37.5762C98.3926 37.0482 98.8126 36.6342 99.3286 36.3342C99.8566 36.0342 100.457 35.8842 101.129 35.8842V38.5302H100.463C99.6706 38.5302 99.0706 38.7162 98.6626 39.0882C98.2666 39.4602 98.0686 40.1082 98.0686 41.0322V46.0002H95.5486V36.0282H98.0686V37.5762ZM102.178 41.0142C102.178 39.9822 102.388 39.0822 102.808 38.3142C103.228 37.5342 103.81 36.9342 104.554 36.5142C105.298 36.0822 106.15 35.8662 107.11 35.8662C108.346 35.8662 109.366 36.1782 110.17 36.8022C110.986 37.4142 111.532 38.2782 111.808 39.3942H109.09C108.946 38.9622 108.7 38.6262 108.352 38.3862C108.016 38.1342 107.596 38.0082 107.092 38.0082C106.372 38.0082 105.802 38.2722 105.382 38.8002C104.962 39.3162 104.752 40.0542 104.752 41.0142C104.752 41.9622 104.962 42.7002 105.382 43.2282C105.802 43.7442 106.372 44.0022 107.092 44.0022C108.112 44.0022 108.778 43.5462 109.09 42.6342H111.808C111.532 43.7142 110.986 44.5722 110.17 45.2082C109.354 45.8442 108.334 46.1622 107.11 46.1622C106.15 46.1622 105.298 45.9522 104.554 45.5322C103.81 45.1002 103.228 44.5002 102.808 43.7322C102.388 42.9522 102.178 42.0462 102.178 41.0142ZM116.174 32.6802V46.0002H113.654V32.6802H116.174ZM127.934 40.7982C127.934 41.1582 127.91 41.4822 127.862 41.7702H120.572C120.632 42.4902 120.884 43.0542 121.328 43.4622C121.772 43.8702 122.318 44.0742 122.966 44.0742C123.902 44.0742 124.568 43.6722 124.964 42.8682H127.682C127.394 43.8282 126.842 44.6202 126.026 45.2442C125.21 45.8562 124.208 46.1622 123.02 46.1622C122.06 46.1622 121.196 45.9522 120.428 45.5322C119.672 45.1002 119.078 44.4942 118.646 43.7142C118.226 42.9342 118.016 42.0342 118.016 41.0142C118.016 39.9822 118.226 39.0762 118.646 38.2962C119.066 37.5162 119.654 36.9162 120.41 36.4962C121.166 36.0762 122.036 35.8662 123.02 35.8662C123.968 35.8662 124.814 36.0702 125.558 36.4782C126.314 36.8862 126.896 37.4682 127.304 38.2242C127.724 38.9682 127.934 39.8262 127.934 40.7982ZM125.324 40.0782C125.312 39.4302 125.078 38.9142 124.622 38.5302C124.166 38.1342 123.608 37.9362 122.948 37.9362C122.324 37.9362 121.796 38.1282 121.364 38.5122C120.944 38.8842 120.686 39.4062 120.59 40.0782H125.324Z" fill="#091156"/>
</svg>
